<?xml version="1.0" encoding="utf-8"?>
<!-- Generator: Adobe Illustrator 26.0.1, SVG Export Plug-In . SVG Version: 6.00 Build 0)  -->
<svg version="1.1" id="Layer_1" xmlns="http://www.w3.org/2000/svg" xmlns:xlink="http://www.w3.org/1999/xlink" x="0px" y="0px"
	 viewBox="0 0 25 25" style="enable-background:new 0 0 25 25;" xml:space="preserve">
<style type="text/css">
	.st0{fill-rule:evenodd;clip-rule:evenodd;fill:#F5A622;}
	.st1{fill-rule:evenodd;clip-rule:evenodd;fill:#FDBC0A;}
	.st2{fill:#FFFFFF;}
</style>
<desc>Created with Sketch.</desc>
<g>
	<path id="Rectangle" class="st0" d="M2.4,0h13.8C21.1,0,25,4,25,8.8v13.8c0,1.3-1.1,2.4-2.4,2.4H8.8C3.9,25,0,21.1,0,16.2V2.4
		C0,1.1,1.1,0,2.4,0z"/>
	<path id="Rectangle_00000066479619151602752070000015071299552418062248_" class="st1" d="M0,0h8.1c4.4,0,8,3.6,8,8v5.6
		c0,1.3-1.1,2.4-2.4,2.4H8.1C3.6,16.1,0,12.5,0,8.1V0z"/>
</g>
<path class="st2" d="M17.2,12.5c0.6-0.4,1.1-0.8,1.5-1.4c0.6-0.9,0.9-1.8,0.9-2.9c0-0.9-0.2-1.8-0.6-2.6c-0.4-0.8-1-1.4-1.7-1.8
	c-0.7-0.4-1.4-0.7-2.2-0.8c-0.8-0.1-1.8-0.2-3.1-0.2H5.5v3.1c0.3,0,0.7,0,1,0c0.1,0,0.3,0,0.4,0.1c0.2,0.1,0.4,0.3,0.5,0.5
	c0.2,0.3,0.1,0.7,0.1,1v4.9v4.9c0,0.3,0,0.7-0.1,1c-0.1,0.2-0.3,0.4-0.5,0.5C6.8,18.9,6.6,19,6.5,19c-0.3,0-0.7,0-1,0v3.1h6.3
	c1.3,0,2.4-0.1,3.1-0.2c0.8-0.1,1.6-0.4,2.2-0.8c0.7-0.4,1.3-1,1.7-1.8c0.4-0.8,0.6-1.6,0.6-2.6c0-1-0.3-2-0.9-2.9
	C18.3,13.3,17.8,12.9,17.2,12.5z M11.2,6.1h0.5c1.2,0,2.1,0.1,2.7,0.2c0.5,0.1,0.9,0.3,1.1,0.7c0.3,0.4,0.5,0.9,0.5,1.5
	c0,0.5-0.1,1-0.5,1.4c-0.2,0.4-0.6,0.6-1.1,0.7c-0.5,0.1-1.3,0.2-2.3,0.2h-1V6.1z M15.5,18.1c-0.3,0.4-0.7,0.6-1.1,0.7
	c-0.6,0.1-1.5,0.2-2.7,0.2h-0.5v-4.7h1c0.9,0,1.7,0.1,2.3,0.2c0.5,0.1,0.8,0.4,1.1,0.7c0.3,0.4,0.5,0.8,0.5,1.4
	C15.9,17.2,15.8,17.7,15.5,18.1z"/>
</svg>
