<?xml version="1.0" encoding="utf-8"?>
<!-- Generator: Adobe Illustrator 26.0.1, SVG Export Plug-In . SVG Version: 6.00 Build 0)  -->
<svg version="1.1" id="Layer_1" xmlns="http://www.w3.org/2000/svg" xmlns:xlink="http://www.w3.org/1999/xlink" x="0px" y="0px"
	 viewBox="0 0 109 29" style="enable-background:new 0 0 109 29;" xml:space="preserve">
<style type="text/css">
	.st0{fill-rule:evenodd;clip-rule:evenodd;fill:#F5A622;}
	.st1{fill-rule:evenodd;clip-rule:evenodd;fill:#FDBC0A;}
	.st2{fill:#FFFFFF;}
	.st3{fill:#515151;}
</style>
<desc>Created with Sketch.</desc>
<g>
	<path id="Rectangle" class="st0" d="M2.4,0h13.8C21.1,0,25,4,25,8.8v13.8c0,1.3-1.1,2.4-2.4,2.4H8.8C3.9,25,0,21.1,0,16.2V2.4
		C0,1.1,1.1,0,2.4,0z"/>
	<path id="Rectangle_00000182519740617627502870000006060684745039216779_" class="st1" d="M0,0h8.1c4.4,0,8,3.6,8,8v5.6
		c0,1.3-1.1,2.4-2.4,2.4H8.1C3.6,16.1,0,12.5,0,8.1V0z"/>
	<path class="st2" d="M17.2,12.5c0.6-0.4,1.1-0.8,1.5-1.4c0.6-0.9,0.9-1.8,0.9-2.9c0-0.9-0.2-1.8-0.7-2.6c-0.4-0.8-1-1.4-1.7-1.8
		c-0.7-0.4-1.4-0.7-2.2-0.8c-0.8-0.1-1.8-0.2-3.1-0.2H5.5v3.1l1.8,0c0.1,0,0.3,0,0.3,0.2v12.5C7.6,19,7.4,19,7.3,19H5.5v3.1h6.3
		c1.3,0,2.4-0.1,3.1-0.2c0.8-0.1,1.6-0.4,2.3-0.8c0.7-0.4,1.3-1,1.7-1.8c0.4-0.8,0.7-1.6,0.7-2.6c0-1.1-0.3-2-0.9-2.9
		C18.3,13.3,17.8,12.9,17.2,12.5z M15.5,18.1c-0.3,0.4-0.7,0.6-1.2,0.7c-0.5,0.1-1.5,0.2-2.7,0.2h-0.5v-4.7h1c0.9,0,1.7,0.1,2.2,0.2
		c0.5,0.1,0.8,0.4,1.1,0.8c0.3,0.4,0.4,0.8,0.4,1.4C15.9,17.2,15.8,17.7,15.5,18.1z M15.9,8.5c0,0.5-0.1,1-0.4,1.4
		c-0.3,0.4-0.6,0.6-1.1,0.7c-0.5,0.1-1.3,0.2-2.3,0.2h-1V6.1h0.5c1.2,0,2.1,0.1,2.7,0.2c0.5,0.1,0.9,0.3,1.2,0.7
		C15.8,7.3,15.9,7.8,15.9,8.5z"/>
</g>
<g>
	<path class="st3" d="M40.2,12.1c1.2,0.7,1.8,1.9,1.8,3.8c0,1.5-0.3,2.6-1,3.4c-0.3,0.4-0.8,0.7-1.2,0.9s-1,0.3-1.7,0.3h-7.2v-0.4
		c0.2-0.1,0.3-0.2,0.4-0.3c0.1-0.1,0.1-0.3,0.1-0.5V5.8c0-0.2,0-0.4-0.1-0.5C31.1,5.1,31,5,30.8,4.9V4.6h7.1c0.7,0,1.2,0.1,1.6,0.2
		C40,5,40.3,5.2,40.7,5.6c0.6,0.7,0.9,1.8,0.9,3.2C41.6,10.3,41.1,11.5,40.2,12.1z M33.6,10.9h4c0.6,0,1-0.1,1.3-0.4
		c0.3-0.3,0.4-0.8,0.4-1.4c0-0.7-0.1-1.1-0.4-1.4s-0.7-0.4-1.3-0.4h-4V10.9z M33.6,17.9h3.9c0.7,0,1.2-0.2,1.6-0.5
		c0.4-0.3,0.5-0.9,0.5-1.7c0-0.8-0.2-1.4-0.5-1.7c-0.3-0.3-0.8-0.5-1.6-0.5h-3.9V17.9z"/>
	<path class="st3" d="M50.9,16.4h-4.8l-0.7,2.2c-0.1,0.3-0.1,0.6-0.1,0.7c0,0.3,0.2,0.6,0.5,0.7v0.4h-3.5v-0.4
		c0.2-0.1,0.4-0.2,0.5-0.3c0.1-0.2,0.2-0.5,0.4-0.9L47,6.6c0.1-0.4,0.2-0.7,0.2-0.9c0-0.4-0.1-0.6-0.4-0.8V4.6h3.7v0.4
		C50.2,5.1,50,5.3,50,5.6c0,0.2,0,0.5,0.1,0.8l4,12.3c0.2,0.5,0.3,0.9,0.4,1.1c0.1,0.2,0.3,0.3,0.5,0.4v0.4h-3.9v-0.4
		c0.3-0.1,0.5-0.3,0.5-0.7c0-0.2-0.1-0.4-0.2-0.7L50.9,16.4z M50.2,14.2l-1.7-5.7l-1.7,5.7H50.2z"/>
	<path class="st3" d="M59.9,15.9l2.8-9.3c0.1-0.4,0.2-0.7,0.2-0.9c0-0.3-0.2-0.6-0.5-0.7V4.6h3.6v0.4c-0.2,0-0.4,0.1-0.5,0.3
		c-0.1,0.1-0.2,0.6-0.5,1.3l-3.6,11.9c-0.2,0.5-0.2,0.8-0.2,1c0,0.4,0.2,0.6,0.5,0.7v0.4H58v-0.4c0.3-0.1,0.5-0.3,0.5-0.7
		c0-0.1-0.1-0.5-0.2-1L54.6,6.5c-0.2-0.7-0.4-1.1-0.5-1.3C54,5.1,53.9,5,53.7,4.9V4.6h3.7v0.4c-0.3,0.1-0.5,0.3-0.5,0.7
		c0,0.2,0.1,0.5,0.2,0.9L59.9,15.9z"/>
	<path class="st3" d="M73.2,16.4h-4.8l-0.7,2.2c-0.1,0.3-0.1,0.6-0.1,0.7c0,0.3,0.2,0.6,0.5,0.7v0.4h-3.5v-0.4
		c0.2-0.1,0.4-0.2,0.5-0.3c0.1-0.2,0.2-0.5,0.4-0.9l3.9-12.2c0.1-0.4,0.2-0.7,0.2-0.9c0-0.4-0.1-0.6-0.4-0.8V4.6h3.7v0.4
		c-0.3,0.1-0.5,0.4-0.5,0.7c0,0.2,0,0.5,0.1,0.8l4,12.3c0.2,0.5,0.3,0.9,0.4,1.1c0.1,0.2,0.3,0.3,0.5,0.4v0.4h-3.9v-0.4
		c0.3-0.1,0.5-0.3,0.5-0.7c0-0.2-0.1-0.4-0.2-0.7L73.2,16.4z M72.5,14.2l-1.7-5.7l-1.7,5.7H72.5z"/>
	<path class="st3" d="M81.1,14v5.3c0,0.2,0,0.4,0.1,0.5s0.2,0.2,0.4,0.3v0.4h-3.3v-0.4c0.2-0.1,0.3-0.2,0.4-0.3
		c0.1-0.1,0.1-0.3,0.1-0.5V5.8c0-0.2,0-0.4-0.1-0.5c-0.1-0.1-0.2-0.2-0.4-0.3V4.6h6.6c0.8,0,1.4,0.1,1.9,0.2
		c0.5,0.1,0.9,0.4,1.2,0.7c0.4,0.4,0.7,1,0.9,1.6c0.2,0.7,0.3,1.4,0.3,2.1c0,2.6-1,4.1-2.9,4.6l2,4.4c0.4,0.8,0.6,1.3,0.8,1.5
		s0.4,0.3,0.6,0.4v0.4H86v-0.4c0.3-0.1,0.4-0.2,0.4-0.4c0-0.1-0.1-0.5-0.4-1L83.9,14H81.1z M81.1,11.4h3.5c0.5,0,0.9,0,1.1-0.1
		s0.4-0.1,0.6-0.3c0.4-0.3,0.6-0.9,0.6-1.7c0-0.8-0.2-1.4-0.6-1.7c-0.2-0.2-0.4-0.3-0.6-0.3s-0.6-0.1-1.1-0.1h-3.5V11.4z"/>
	<path class="st3" d="M91.6,19.3V5.8c0-0.2,0-0.4-0.1-0.5c-0.1-0.1-0.2-0.2-0.4-0.3V4.6h3.3v0.4C94.2,5,94,5.1,94,5.2
		s-0.1,0.3-0.1,0.5v13.5c0,0.2,0,0.4,0.1,0.6s0.2,0.2,0.4,0.3v0.4h-3.3v-0.4c0.2-0.1,0.3-0.2,0.4-0.3C91.5,19.7,91.6,19.5,91.6,19.3
		z"/>
	<path class="st3" d="M104,16.4h-4.8l-0.7,2.2c-0.1,0.3-0.1,0.6-0.1,0.7c0,0.3,0.2,0.6,0.5,0.7v0.4h-3.5v-0.4
		c0.2-0.1,0.4-0.2,0.5-0.3c0.1-0.2,0.2-0.5,0.4-0.9l3.9-12.2c0.1-0.4,0.2-0.7,0.2-0.9c0-0.4-0.1-0.6-0.4-0.8V4.6h3.7v0.4
		c-0.3,0.1-0.5,0.4-0.5,0.7c0,0.2,0,0.5,0.1,0.8l4,12.3c0.2,0.5,0.3,0.9,0.4,1.1c0.1,0.2,0.3,0.3,0.5,0.4v0.4h-3.9v-0.4
		c0.3-0.1,0.5-0.3,0.5-0.7c0-0.2-0.1-0.4-0.2-0.7L104,16.4z M103.3,14.2l-1.7-5.7l-1.7,5.7H103.3z"/>
</g>
</svg>
